{"title":"The Magicians S01E03 1080p WEB-DL DD5 1 H264","uid":13426492,"size":1746464418,"categoryP":"video","categoryS":"tv_shows","magnet":"?xt=urn:btih:2a87de5106440874414e8d64752f6f3323166b2d&amp;dn=The+Magicians+S01E03+1080p+WEB-DL+DD5+1+H264&amp;tr=udp%3A%2F%2Ftracker.leechers-paradise.org%3A6969&amp;tr=udp%3A%2F%2Fzer0day.ch%3A1337&amp;tr=udp%3A%2F%2Fopen.demonii.com%3A1337&amp;tr=udp%3A%2F%2Ftracker.coppersurfer.tk%3A6969&amp;tr=udp%3A%2F%2Fexodus.desync.com%3A6969","seeders":2,"leechers":0,"uploader":"IsohuntReleaseGroup","files":3,"time":1454596117,"description":"For more releases visit      http://extratorrent.es        \r\n\r\n\r\nVideo\r\nID : 1\r\nFormat : AVC\r\nFormat/Info : Advanced Video Codec\r\nFormat profile :   \r\nFormat settings, CABAC : Yes\r\nFormat settings, ReFrames : 4 frames\r\nCodec ID : V_MPEG4/ISO/AVC\r\nDuration : 42mn 59s\r\nBit rate : 4 925 Kbps\r\nWidth : 1 920 pixels\r\nHeight : 1 080 pixels\r\nDisplay aspect ratio : 16:9\r\nFrame rate mode : Constant\r\nFrame rate : 23.976 (24000/1001) fps\r\nColor space : YUV\r\nChroma subsampling : 4:2:0\r\nBit depth : 8 bits\r\nScan type : Progressive\r\nBits/(Pixel*Frame) : 0.099\r\nStream size : 1.48 GiB (91%)\r\nTitle : The.Magicians.S01E03.1080p.WEB-DL.DD5.1.H264-RARBG\r\nLanguage : English\r\nDefault : Yes\r\nForced : No\r\nColor range : Limited\r\nColor primaries : BT.709\r\nTransfer characteristics : BT.709\r\nMatrix coefficients : BT.709\r\n\r\nAudio\r\nID : 2\r\nFormat : AC-3\r\nFormat/Info : Audio Coding 3\r\nMode extension : CM (complete main)\r\nFormat settings, Endianness : Big\r\nCodec ID : A_AC3\r\nDuration : 42mn 59s\r\nBit rate mode : Constant\r\nBit rate : 384 Kbps\r\nChannel(s) : 6 channels\r\nChannel positions : Front: L C R, Side: L R, LFE\r\nSampling rate : 48.0 KHz\r\nFrame rate : 31.250 fps (1536 spf)\r\nCompression mode : Lossy\r\nStream size : 118 MiB (7%)\r\nTitle : The.Magicians.S01E03.1080p.WEB-DL.DD5.1.H264-RARBG\r\nLanguage : English\r\nDefault : Yes\r\nForced : No\r\n\r\nText\r\nID : 3\r\nFormat : UTF-8\r\nCodec ID : S_TEXT/UTF8\r\nCodec ID/Info : UTF-8 Plain Text\r\nDefault : Yes\r\nForced : No","torrent":{"xt":"urn:btih:2a87de5106440874414e8d64752f6f3323166b2d","amp;dn":"The+Magicians+S01E03+1080p+WEB-DL+DD5+1+H264","amp;tr":["udp%3A%2F%2Ftracker.leechers-paradise.org%3A6969","udp%3A%2F%2Fzer0day.ch%3A1337","udp%3A%2F%2Fopen.demonii.com%3A1337","udp%3A%2F%2Ftracker.coppersurfer.tk%3A6969","udp%3A%2F%2Fexodus.desync.com%3A6969"],"infoHash":"2a87de5106440874414e8d64752f6f3323166b2d","infoHashBuffer":{"type":"Buffer","data":[42,135,222,81,6,68,8,116,65,78,141,100,117,47,111,51,35,22,107,45]},"announce":[],"urlList":[]}}